<?xml version="1.0" encoding="UTF-8" standalone="no"?>
<svg xmlns="http://www.w3.org/2000/svg" xmlns:sodipodi="http://sodipodi.sourceforge.net/DTD/sodipodi-0.dtd" xmlns:inkscape="http://www.inkscape.org/namespaces/inkscape" width="812.5" height="812.5" viewBox="0 0 650 650" version="1.1">
 <metadata id="metadata208"/>
 <g id="g3414" transform="translate(9.487663,-17.406278)">
  <path inkscape:connector-curvature="0" id="path12" d="m 111.40297,35.566781 c 0.2,-0.2 0.7,-0.5 1,-0.7 5.5,2.8 11.2,5.1 16.9,7.5 17.3,7.4 34.7,14.5 51.8,22.2 -19.5,0.8 -39,-0.1 -58.6,0.5 l -0.6,-0.5 c -0.2,-0.2 -0.7,-0.6 -1,-0.8 -0.2,-0.4 -0.5,-1.1 -0.6,-1.5 -1.9,-8.9 -5.5,-17.3 -8.6,-25.8 l -0.3,-0.9 z" fill="#6d7139" stroke="#6d7139" stroke-width="0.094"/>
  <path inkscape:connector-curvature="0" id="path14" d="m 101.60297,44.566781 c 3.1,-3.2 6.3,-6.3 9.8,-9 l 0.3,0.9 c -0.1,4.2 -0.2,8.9 -3.3,12.1 -5.6,6 -12.900001,10.1 -18.100001,16.6 l -0.5,0.6 c -1.4,-0.3 -2.8,-0.6 -4.2,-0.8 5.1,-7 11.9,-12.6 16.000001,-20.4 z" fill="#718709" stroke="#718709" stroke-width="0.094"/>
  <path inkscape:connector-curvature="0" id="path16" d="m 111.70297,36.466781 c 3.1,8.5 6.7,16.9 8.6,25.8 -3.1,-5 -6.4,-9.7 -9.6,-14.6 -3.5,6.3 -7.8,12 -12.500001,17.4 2.800001,4.6 6.700001,8.3 10.100001,12.4 l 0.6,0.7 c -6.5,-3.9 -12.600001,-8.5 -18.600001,-13 5.2,-6.5 12.500001,-10.6 18.100001,-16.6 3.1,-3.2 3.2,-7.9 3.3,-12.1 z" fill="#95a20a" stroke="#95a20a" stroke-width="0.094"/>
  <path inkscape:connector-curvature="0" id="path18" d="m 79.402969,64.166781 c 7.5,-6.5 14.4,-13.6 22.200001,-19.6 -4.100001,7.8 -10.900001,13.4 -16.000001,20.4 -2,-0.3 -4.1,-0.6 -6.2,-0.8 z" fill="#606909" stroke="#606909" stroke-width="0.094"/>
  <path inkscape:connector-curvature="0" id="path20" d="m 202.60297,64.366781 c 14.6,-5.9 29,-12.2 43.8,-17.5 l -0.1,0.7 c -0.1,1 -0.3,2 -0.4,3 -0.4,4.8 -0.3,9.6 -0.3,14.4 -1.5,0.3 -3,0.5 -4.5,0.8 -12.7,-2.2 -25.7,-0.3 -38.5,-1.4 z" fill="#789004" stroke="#789004" stroke-width="0.094"/>
  <path inkscape:connector-curvature="0" id="path22" d="m 98.202969,65.066781 c 4.700001,-5.4 9.000001,-11.1 12.500001,-17.4 3.2,4.9 6.5,9.6 9.6,14.6 0.1,0.4 0.4,1.1 0.6,1.5 -3.3,-2.2 -6.7,-4.1 -10.2,-5.9 -2.6,2.1 -5,4.5 -7.2,7 2,4 3.6,8.2 4.8,12.6 -3.4,-4.1 -7.3,-7.8 -10.100001,-12.4 z" fill="#adbe0b" stroke="#adbe0b" stroke-width="0.094"/>
  <path inkscape:connector-curvature="0" id="path24" d="m 245.90297,50.566781 c 0.1,-1 0.3,-2 0.4,-3 5.5,5.6 11.2,11 16.5,16.7 -3.3,0.4 -6.7,0.6 -10.1,0.7 -1.9,-5 -3.9,-9.9 -6.8,-14.4 z" fill="#a5b404" stroke="#a5b404" stroke-width="0.094"/>
  <path inkscape:connector-curvature="0" id="path26" d="m 245.90297,50.566781 c 2.9,4.5 4.9,9.4 6.8,14.4 -2.3,0 -4.7,0 -7.1,0 0,-4.8 -0.1,-9.6 0.3,-14.4 z" fill="#bacb04" stroke="#bacb04" stroke-width="0.094"/>
  <path inkscape:connector-curvature="0" id="path28" d="m 103.50297,64.866781 c 2.2,-2.5 4.6,-4.9 7.2,-7 3.5,1.8 6.9,3.7 10.2,5.9 0.3,0.2 0.8,0.6 1,0.8 -3.8,5 -7.1,10.4 -11.8,14.7 -0.3,-0.3 -0.9,-0.9 -1.2,-1.1 l -0.6,-0.7 c -1.2,-4.4 -2.8,-8.6 -4.8,-12.6 z" fill="#c8db0d" stroke="#c8db0d" stroke-width="0.094"/>
  <path inkscape:connector-curvature="0" id="path30" d="m 78.502969,65.066781 c 0.2,-0.2 0.7,-0.7 0.9,-0.9 2.1,0.2 4.2,0.5 6.2,0.8 1.4,0.2 2.8,0.5 4.2,0.8 -1.6,5.8 -0.2,11.8 0.4,17.7 1.1,8.1 1.7,16.4 2.7,24.499999 5.7,-7.5 9.900001,-16.199999 15.600001,-23.899999 0.5,0.2 1.6,0.5 2.2,0.6 -0.4,8.4 -0.3,16.699999 -0.1,24.999999 -1.6,0.1 -3.3,0.2 -4.9,0.3 -0.1,1.4 -0.1,2.9 -0.1,4.3 -1.1,9.5 -0.9,19.1 -1.8,28.5 -0.3,3.7 -0.2,7.3 -0.2,11 -0.2,0.3 -0.6,0.9 -0.8,1.3 -12.300001,-0.1 -24.700001,-0.5 -37.000001,0 0.3,-0.5 0.7,-1.6 1,-2.1 6.4,-10.6 12.7,-21.3 19.1,-31.9 2,-3.3 4.3,-6.5 5.9,-10 0.8,-2.1 -0.2,-4.3 -0.7,-6.4 -4.4,-13.099999 -8.3,-26.399999 -12.6,-39.599999 z" fill="#4a5103" stroke="#4a5103" stroke-width="0.094"/>
  <path inkscape:connector-curvature="0" id="path32" d="m 200.50297,65.066781 c 0.5,-0.2 1.6,-0.5 2.1,-0.7 12.8,1.1 25.8,-0.8 38.5,1.4 -13.3,4 -26.8,7.4 -40.1,11.1 -0.1,-2.4 -0.2,-4.7 -0.2,-7.1 -0.1,-1.6 -0.1,-3.2 -0.3,-4.7 z" fill="#545b05" stroke="#545b05" stroke-width="0.094"/>
  <path inkscape:connector-curvature="0" id="path34" d="m 262.80297,64.266781 c 0.7,0.8 1.3,1.5 2,2.3 1.7,9.2 4.9,17.8 7.3,26.7 5.3,19.099999 11.7,37.799999 16.6,56.899999 -1,-1.8 -2,-3.5 -2.9,-5.3 -6.2,-16 -13.1,-31.7 -19.4,-47.699999 -4.6,-10.7 -8.6,-21.7 -13.7,-32.2 3.4,-0.1 6.8,-0.3 10.1,-0.7 z" fill="#677406" stroke="#677406" stroke-width="0.094"/>
  <path inkscape:connector-curvature="0" id="path38" d="m 121.90297,64.566781 0.6,0.5 c 10.8,8.9 22,17.3 33.2,25.7 0.5,-0.2 1.5,-0.4 2,-0.6 6.7,-1.8 13.2,-4 19.9,-5.5 -6.7,4.6 -15.2,4.8 -22,9.1 -2.7,5 -3.4,10.699999 -4.8,16.199999 l -0.9,-0.1 c -12.5,-10.599999 -25.9,-20.099999 -39,-29.899999 -0.2,-0.2 -0.6,-0.5 -0.8,-0.7 4.7,-4.3 8,-9.7 11.8,-14.7 z" fill="#9faa2b" stroke="#9faa2b" stroke-width="0.094"/>
  <path inkscape:connector-curvature="0" id="path40" d="m 122.50297,65.066781 c 19.6,-0.6 39.1,0.3 58.6,-0.5 l 0.9,0.3 c -7.7,8.8 -17.2,16 -24.3,25.3 -0.5,0.2 -1.5,0.4 -2,0.6 -11.2,-8.4 -22.4,-16.8 -33.2,-25.7 z" fill="#78785a" stroke="#78785a" stroke-width="0.094"/>
  <path inkscape:connector-curvature="0" id="path42" d="m 182.00297,64.866781 0.8,0.2 c 0.5,0.2 1.5,0.5 2,0.7 5,3.9 10.4,7.3 15.5,11.2 -0.4,0.2 -1.1,0.6 -1.5,0.8 -7.1,2.3 -14.3,4.1 -21.2,6.9 -6.7,1.5 -13.2,3.7 -19.9,5.5 7.1,-9.3 16.6,-16.5 24.3,-25.3 z" fill="#5a5d2e" stroke="#5a5d2e" stroke-width="0.094"/>
  <path inkscape:connector-curvature="0" id="path44" d="m 241.10297,65.766781 c 1.5,-0.3 3,-0.5 4.5,-0.8 9.6,18.8 18.8,37.899999 28.2,56.899999 4,7.6 7.6,15.5 12,23 0.9,1.8 1.9,3.5 2.9,5.3 l 0.3,0.8 c -1.4,-0.3 -2.8,-0.7 -4.1,-1 0.2,2.8 2,4.8 4.5,5.8 -6.2,12.8 -14,24.8 -20,37.8 -5.1,10.6 -12,20.3 -17.1,30.9 -1.8,3.6 -3.2,7.6 -6.1,10.5 -1.6,0.4 -3.2,0.1 -4.8,0 -41.7,-24.7 -82.6,-50.7 -124.1,-75.7 -2.3,-1.4 -4.3,-3.3 -6.1,-5.2 4.4,-4.5 8.6,-9.2 12.9,-13.8 9.1,-10.5 19.7,-19.6 28.7,-30.1 12.4,-8.3 24.5,-16.999999 36.9,-25.399999 3.2,-2.1 6.2,-4.5 9.1,-7 0.4,-0.2 1.1,-0.6 1.5,-0.8 l 0.7,-0.1 c 13.3,-3.7 26.8,-7.1 40.1,-11.1 z" fill="#dcf806" stroke="#dcf806" stroke-width="0.094"/>
  <path inkscape:connector-curvature="0" id="path46" d="m 245.60297,64.966781 c 2.4,0 4.8,0 7.1,0 5.1,10.5 9.1,21.5 13.7,32.2 6.3,15.999999 13.2,31.699999 19.4,47.699999 -4.4,-7.5 -8,-15.4 -12,-23 -9.4,-19 -18.6,-38.099999 -28.2,-56.899999 z" fill="#899c06" stroke="#899c06" stroke-width="0.094"/>
  <path inkscape:connector-curvature="0" id="path48" d="m 89.802969,65.766781 0.5,-0.6 c 6,4.5 12.100001,9.1 18.600001,13 0.3,0.2 0.9,0.8 1.2,1.1 0.2,0.2 0.6,0.5 0.8,0.7 -0.1,1.6 -0.2,3.2 -0.2,4.7 -0.6,-0.1 -1.7,-0.4 -2.2,-0.6 -5.7,7.7 -9.900001,16.399999 -15.600001,23.899999 -1,-8.099999 -1.6,-16.399999 -2.7,-24.499999 -0.6,-5.9 -2,-11.9 -0.4,-17.7 z" fill="#646e06" stroke="#646e06" stroke-width="0.094"/>
  <path inkscape:connector-curvature="0" id="path50" d="m 184.80297,65.766781 c 5.4,1 10.7,2.2 16,4 0,2.4 0.1,4.7 0.2,7.1 l -0.7,0.1 c -5.1,-3.9 -10.5,-7.3 -15.5,-11.2 z" fill="#272813" stroke="#272813" stroke-width="0.094"/>
  <path inkscape:connector-curvature="0" id="path54" d="m 177.60297,84.666781 c 6.9,-2.8 14.1,-4.6 21.2,-6.9 -2.9,2.5 -5.9,4.9 -9.1,7 -12.4,8.4 -24.5,17.099999 -36.9,25.399999 -0.5,-0.1 -1.5,-0.2 -2,-0.2 1.4,-5.5 2.1,-11.199999 4.8,-16.199999 6.8,-4.3 15.3,-4.5 22,-9.1 z" fill="#a9b231" stroke="#a9b231" stroke-width="0.094"/>
  <path inkscape:connector-curvature="0" id="path56" d="m 110.90297,79.966781 c 13.1,9.8 26.5,19.3 39,29.899999 -13.1,-0.1 -26.2,0.2 -39.3,-0.2 -0.2,-8.3 -0.3,-16.599999 0.1,-24.999999 0,-1.5 0.1,-3.1 0.2,-4.7 z" fill="#728913" stroke="#728913" stroke-width="0.094"/>
  <path inkscape:connector-curvature="0" id="path58" d="m 105.70297,109.96678 c 1.6,-0.1 3.3,-0.2 4.9,-0.3 0,12.8 0.5,25.7 -0.3,38.4 -1.6,-11.2 -2.1,-22.7 -4.7,-33.8 0,-1.4 0,-2.9 0.1,-4.3 z" fill="#616e00" stroke="#616e00" stroke-width="0.094"/>
  <path inkscape:connector-curvature="0" id="path60" d="m 110.60297,109.66678 c 13.1,0.4 26.2,0.1 39.3,0.2 l 0.9,0.1 c 0.5,0 1.5,0.1 2,0.2 -9,10.5 -19.6,19.6 -28.7,30.1 -4.3,4.6 -8.5,9.3 -12.9,13.8 -0.3,0.1 -0.9,0.3 -1.3,0.3 -2.1,-0.1 -4.2,-0.4 -6.3,-0.6 0,-3.7 -0.1,-7.3 0.2,-11 0.9,-9.4 0.7,-19 1.8,-28.5 2.6,11.1 3.1,22.6 4.7,33.8 0.8,-12.7 0.3,-25.6 0.3,-38.4 z" fill="#90a009" stroke="#90a009" stroke-width="0.094"/>
  <path inkscape:connector-curvature="0" id="path62" d="m 284.90297,149.96678 c 1.3,0.3 2.7,0.7 4.1,1 0.5,1.3 1,2.7 1.4,4 4.4,14.8 7.8,29.9 12.4,44.6 -2.7,2 -5.5,4.1 -8.2,6.2 -16.8,9.9 -32.6,21.4 -49.1,31.8 -0.4,0.1 -1.2,0.2 -1.6,0.2 -0.8,-0.9 -1.7,-1.9 -2.5,-2.8 1.6,0.1 3.2,0.4 4.8,0 2.9,-2.9 4.3,-6.9 6.1,-10.5 5.1,-10.6 12,-20.3 17.1,-30.9 6,-13 13.8,-25 20,-37.8 -2.5,-1 -4.3,-3 -4.5,-5.8 z" fill="#d9ec07" stroke="#d9ec07" stroke-width="0.094"/>
  <path inkscape:connector-curvature="0" id="path64" d="m 103.60297,153.76678 c 2.1,0.2 4.2,0.5 6.3,0.6 l 0.1,1 c -3.5,4.3 -7.4,8.4 -11.100001,12.7 -10.7,6.7 -17.8,17.8 -28.1,25 10.1,-13.1 22.1,-24.7 32.000001,-38 0.2,-0.4 0.6,-1 0.8,-1.3 z" fill="#a4b901" stroke="#a4b901" stroke-width="0.094"/>
  <path inkscape:connector-curvature="0" id="path66" d="m 109.90297,154.36678 c 0.4,0 1,-0.2 1.3,-0.3 1.8,1.9 3.8,3.8 6.1,5.2 41.5,25 82.4,51 124.1,75.7 0.8,0.9 1.7,1.9 2.5,2.8 -33.8,2.2 -67.7,4.4 -101.5,6.7 -5,0 -9.9,0.1 -14.8,0.4 l -0.9,0.1 c -2.4,-18.6 -7,-36.7 -10,-55.1 -1.2,-6.7 -2.1,-13.5 -4.2,-19.9 -0.9,-4.9 -1.7,-9.8 -2.5,-14.6 l -0.1,-1 z" fill="#bbe905" stroke="#bbe905" stroke-width="0.094"/>
  <path inkscape:connector-curvature="0" id="path68" d="m 65.802969,155.06678 c 12.3,-0.5 24.7,-0.1 37.000001,0 -9.900001,13.3 -21.900001,24.9 -32.000001,38 -2,2 -3.9,4.1 -5.9,6.1 -0.1,-13.5 0.4,-27 -0.6,-40.4 0,-1.1 0.1,-2.1 0.1,-3.2 0.4,-0.1 1.1,-0.4 1.4,-0.5 z" fill="#6a7702" stroke="#6a7702" stroke-width="0.094"/>
  <path inkscape:connector-curvature="0" id="path70" d="m 290.40297,154.96678 c 12,-0.4 23.9,0.2 35.8,-0.3 -3.7,7.8 -7.7,15.4 -11.5,23.2 -3.6,7.5 -8.1,14.5 -11.3,22.1 l -0.6,-0.4 c -4.6,-14.7 -8,-29.8 -12.4,-44.6 z" fill="#6f5112" stroke="#6f5112" stroke-width="0.094"/>
  <path inkscape:connector-curvature="0" id="path72" d="m 326.20297,154.66678 c 12.3,10.3 24.7,20.4 37,30.7 5.5,4.8 11.3,9.2 16.6,14.3 -25.5,0.5 -50.9,-0.1 -76.4,0.3 3.2,-7.6 7.7,-14.6 11.3,-22.1 3.8,-7.8 7.8,-15.4 11.5,-23.2 z" fill="#723b1b" stroke="#723b1b" stroke-width="0.094"/>
  <path inkscape:connector-curvature="0" id="path74" d="m 23.302969,169.56678 c 13.7,-4.6 27.3,-9.6 41.1,-14 0,1.1 -0.1,2.1 -0.1,3.2 -6.7,13.5 -12.5,27.3 -18.8,41 -7,-2.5 -13.4,-6.4 -20.1,-9.5 -8.4,-4.3 -17.2,-7.5 -25.29999995,-12.4 7.59999995,-3.2 15.49999995,-5.4 23.19999995,-8.3 z" fill="#303309" stroke="#303309" stroke-width="0.094"/>
  <path inkscape:connector-curvature="0" id="path76" d="m 98.902969,168.06678 c 3.700001,-4.3 7.600001,-8.4 11.100001,-12.7 0.8,4.8 1.6,9.7 2.5,14.6 1.2,15.3 3.1,30.6 4.3,45.9 0.6,9.5 2,18.9 2.1,28.4 -10,-6.9 -19.700001,-14.2 -30.000001,-20.7 -7.8,-5.6 -15.6,-11.1 -23.4,-16.6 10.8,-13.2 23.1,-25.3 33.4,-38.9 z" fill="#d6f400" stroke="#d6f400" stroke-width="0.094"/>
  <path inkscape:connector-curvature="0" id="path78" d="m 64.302969,158.76678 c 1,13.4 0.5,26.9 0.6,40.4 -5.5,0.9 -11.2,0.4 -16.7,1.5 -0.9,-0.3 -1.8,-0.6 -2.7,-0.9 6.3,-13.7 12.1,-27.5 18.8,-41 z" fill="#869704" stroke="#869704" stroke-width="0.094"/>
  <path inkscape:connector-curvature="0" id="path80" d="m 70.802969,193.06678 c 10.3,-7.2 17.4,-18.3 28.1,-25 -10.3,13.6 -22.6,25.7 -33.4,38.9 -5.7,-2.4 -11.6,-4.1 -17.3,-6.3 5.5,-1.1 11.2,-0.6 16.7,-1.5 2,-2 3.9,-4.1 5.9,-6.1 z" fill="#b6cf00" stroke="#b6cf00" stroke-width="0.094"/>
  <path inkscape:connector-curvature="0" id="path82" d="m 112.50297,169.96678 c 2.1,6.4 3,13.2 4.2,19.9 3,18.4 7.6,36.5 10,55.1 -0.4,0 -1.4,0 -1.8,0.1 -2,-0.2 -4,-0.4 -6,-0.8 -0.1,-9.5 -1.5,-18.9 -2.1,-28.4 -1.2,-15.3 -3.1,-30.6 -4.3,-45.9 z" fill="#9bb502" stroke="#9bb502" stroke-width="0.094"/>
  <path inkscape:connector-curvature="0" id="path84" d="m 294.60297,205.76678 c 2.7,-2.1 5.5,-4.2 8.2,-6.2 l 0.6,0.4 c 25.2,15.4 51.2,29.5 76.5,44.8 -39.7,0.3 -79.5,0 -119.2,0.1 -4.8,0.1 -9.5,-0.2 -14.3,-0.3 15.3,-13.8 33,-24.9 48.2,-38.8 z" fill="#f16505" stroke="#f16505" stroke-width="0.094"/>
  <path inkscape:connector-curvature="0" id="path86" d="m 303.40297,199.96678 c 25.5,-0.4 50.9,0.2 76.4,-0.3 0.2,0.3 0.8,0.8 1.1,1.1 1.3,14.7 3.9,29.3 5.9,43.9 -1.8,0.1 -3.5,0.1 -5.2,0.1 -0.5,0 -1.3,0 -1.7,0 -25.3,-15.3 -51.3,-29.4 -76.5,-44.8 z" fill="#a23b16" stroke="#a23b16" stroke-width="0.094"/>
  <path inkscape:connector-curvature="0" id="path88" d="m 380.90297,200.76678 c 8.5,7.7 16.5,16.1 24.7,24.2 6.4,6.6 13.2,12.8 19.3,19.7 -12.5,1.1 -24.9,-0.4 -37.3,1.4 -0.2,-0.4 -0.6,-1 -0.8,-1.4 -2,-14.6 -4.6,-29.2 -5.9,-43.9 z" fill="#672316" stroke="#672316" stroke-width="0.094"/>
  <path inkscape:connector-curvature="0" id="path90" d="m 245.50297,237.56678 c 16.5,-10.4 32.3,-21.9 49.1,-31.8 -15.2,13.9 -32.9,25 -48.2,38.8 l -0.8,0.3 c 0,-2.5 0,-4.9 -0.1,-7.3 z" fill="#f39003" stroke="#f39003" stroke-width="0.094"/>
  <path inkscape:connector-curvature="0" id="path92" d="m 88.902969,223.56678 c 10.3,6.5 20.000001,13.8 30.000001,20.7 2,0.4 4,0.6 6,0.8 -2.3,0.8 -4.5,1.8 -6.7,2.8 -8.8,-9.3 -20.700001,-14.9 -29.300001,-24.3 z" fill="#3f4605" stroke="#3f4605" stroke-width="0.094"/>
  <path inkscape:connector-curvature="0" id="path94" d="m 142.40297,244.46678 c 33.8,-2.3 67.7,-4.5 101.5,-6.7 0.4,0 1.2,-0.1 1.6,-0.2 0.1,2.4 0.1,4.8 0.1,7.3 -27.9,0.1 -55.9,-0.1 -83.9,0 -6.4,0.2 -12.9,0.1 -19.3,-0.4 z" fill="#e4e905" stroke="#e4e905" stroke-width="0.094"/>
  <path inkscape:connector-curvature="0" id="path96" d="m 124.90297,245.06678 c 0.4,-0.1 1.4,-0.1 1.8,-0.1 l 0.9,-0.1 0.4,0.6 c 1.4,2 2.7,4 4.2,5.9 16.8,20.5 33.4,41.2 50.4,61.6 2.6,3.2 4.9,6.5 7.3,9.8 -2.9,-2.4 -5.9,-4.8 -8.3,-7.8 -6.9,-8.4 -15.3,-15.4 -22.2,-23.7 -6.5,-6.6 -12.8,-13.3 -18.9,-20.1 -7.3,-6.8 -13.2,-14.9 -20.8,-21.5 -0.4,-0.4 -1.1,-1.4 -1.5,-1.8 2.2,-1 4.4,-2 6.7,-2.8 z" fill="#674024" stroke="#674024" stroke-width="0.094"/>
  <path inkscape:connector-curvature="0" id="path98" d="m 127.60297,244.86678 c 4.9,-0.3 9.8,-0.4 14.8,-0.4 6.4,0.5 12.9,0.6 19.3,0.4 28,-0.1 56,0.1 83.9,0 -6.6,14.9 -12.5,30.2 -19.3,45.1 -32.6,-15.2 -65.6,-29.5 -98.3,-44.5 l -0.4,-0.6 z" fill="#ceb30d" stroke="#ceb30d" stroke-width="0.094"/>
  <path inkscape:connector-curvature="0" id="path100" d="m 245.60297,244.86678 0.8,-0.3 c 4.8,0.1 9.5,0.4 14.3,0.3 39.7,-0.1 79.5,0.2 119.2,-0.1 0.4,0 1.2,0 1.7,0 2.2,2.8 4.7,5.4 7.3,8 7.7,7.9 14.9,16.5 23.8,23.3 4.3,4.4 8.6,8.7 12.7,13.2 7,8 14.7,15.3 22.1,22.8 7.4,7.3 14.5,14.9 22.3,21.7 0.2,0.2 0.7,0.7 0.9,0.9 -6.8,17.5 -12.5,35.5 -19.2,53 -10.4,27.2 -19.7,54.8 -29.7,82.2 -13.8,-2.7 -27.3,-6.1 -41,-9 -0.2,18 -0.1,36.1 -0.1,54.1 -45,-0.1 -90.1,-0.2 -135.1,0 -0.6,-1.4 -1.2,-2.7 -1.8,-4.1 -0.7,-2.4 -1.3,-4.8 -2,-7.1 -4.7,-18.5 -10.8,-36.7 -16,-55.1 -3.4,-10.8 -6,-21.9 -10.4,-32.4 -3.8,-9.2 -7.2,-18.6 -11.5,-27.6 -0.5,-1.7 -1,-3.3 -1.6,-4.9 -0.5,-2 -2.8,-2.2 -4.3,-2.9 1.8,-4.5 2.1,-9.3 1.8,-14 -0.3,-8.8 0.4,-17.6 -0.1,-26.4 0.1,-1.2 0.3,-2.4 0.4,-3.6 0.7,-2 1.6,-4 2.7,-5.9 7.8,-13.7 16.1,-27.1 23.5,-41 6.8,-14.9 12.7,-30.2 19.3,-45.1 z" fill="#ff4600" stroke="#ff4600" stroke-width="0.094"/>
  <path inkscape:connector-curvature="0" id="path102" d="m 381.60297,244.76678 c 1.7,0 3.4,0 5.2,-0.1 0.2,0.4 0.6,1 0.8,1.4 7.8,10.4 17.8,19.2 25.1,30 -8.9,-6.8 -16.1,-15.4 -23.8,-23.3 -2.6,-2.6 -5.1,-5.2 -7.3,-8 z" fill="#c43716" stroke="#c43716" stroke-width="0.094"/>
  <path inkscape:connector-curvature="0" id="path104" d="m 387.60297,246.06678 c 12.4,-1.8 24.8,-0.3 37.3,-1.4 0.4,0.7 0.9,1.3 1.4,2 -1.4,14.2 0,28.4 -0.9,42.6 -4.1,-4.5 -8.4,-8.8 -12.7,-13.2 -7.3,-10.8 -17.3,-19.6 -25.1,-30 z" fill="#8d270f" stroke="#8d270f" stroke-width="0.094"/>
  <path inkscape:connector-curvature="0" id="path106" d="m 128.00297,245.46678 c 32.7,15 65.7,29.3 98.3,44.5 -7.4,13.9 -15.7,27.3 -23.5,41 -1.1,1.9 -2,3.9 -2.7,5.9 -1.7,-5.7 -6.3,-9.8 -10.2,-14.1 -2.4,-3.3 -4.7,-6.6 -7.3,-9.8 -17,-20.4 -33.6,-41.1 -50.4,-61.6 -1.5,-1.9 -2.8,-3.9 -4.2,-5.9 z" fill="#aa2b23" stroke="#aa2b23" stroke-width="0.094"/>
  <path inkscape:connector-curvature="0" id="path108" d="m 425.40297,289.26678 c 0.9,-14.2 -0.5,-28.4 0.9,-42.6 6.7,12.6 12.8,25.5 19.4,38.2 7.9,16.4 16.6,32.3 24.1,48.9 -7.8,-6.8 -14.9,-14.4 -22.3,-21.7 -7.4,-7.5 -15.1,-14.8 -22.1,-22.8 z" fill="#b12d0b" stroke="#b12d0b" stroke-width="0.094"/>
  <path inkscape:connector-curvature="0" id="path110" d="m 119.70297,249.66678 c 7.6,6.6 13.5,14.7 20.8,21.5 6.1,6.8 12.4,13.5 18.9,20.1 6.9,8.3 15.3,15.3 22.2,23.7 2.4,3 5.4,5.4 8.3,7.8 3.9,4.3 8.5,8.4 10.2,14.1 -0.1,1.2 -0.3,2.4 -0.4,3.6 -3.7,13 -5.9,26.4 -9.2,39.5 -19.1,-35.1 -38.4,-70.1 -57.6,-105.2 -4.4,-8.3 -9.4,-16.4 -13.2,-25.1 z" fill="#672013" stroke="#672013" stroke-width="0.094"/>
  <path inkscape:connector-curvature="0" id="path112" d="m 470.70297,334.66678 c 0.3,0.3 0.8,0.8 1.1,1 10.8,12.1 22.8,23.2 34.2,34.9 2.9,2.8 5.8,5.7 8.9,8.4 -0.2,0.8 -0.4,1.6 -0.6,2.5 -4.1,4.6 -9,8.3 -13.3,12.7 -12.9,13.1 -26.1,25.9 -39,39 -11.6,11.8 -23.8,23.2 -34.6,35.8 0,0.3 0,0.9 0,1.2 0,0.5 0.1,1.3 0.2,1.7 -0.4,-0.2 -1.3,-0.7 -1.7,-0.9 -1.4,-0.4 -2.8,-0.8 -4.1,-1.1 10,-27.4 19.3,-55 29.7,-82.2 6.7,-17.5 12.4,-35.5 19.2,-53 z" fill="#ec4104" stroke="#ec4104" stroke-width="0.094"/>
  <path inkscape:connector-curvature="0" id="path114" d="m 471.80297,335.66678 c 9.7,4.5 19,9.7 28.5,14.6 18.6,9.6 37.3,19.2 55.8,29 -13.1,1.7 -26.4,-0.4 -39.5,1.1 -0.6,-0.5 -1.2,-0.9 -1.7,-1.4 -3.1,-2.7 -6,-5.6 -8.9,-8.4 -11.4,-11.7 -23.4,-22.8 -34.2,-34.9 z" fill="#b23101" stroke="#b23101" stroke-width="0.094"/>
  <path inkscape:connector-curvature="0" id="path116" d="m 190.50297,379.96678 c 3.3,-13.1 5.5,-26.5 9.2,-39.5 0.5,8.8 -0.2,17.6 0.1,26.4 0.3,4.7 0,9.5 -1.8,14 -2.5,-0.4 -5,-0.6 -7.5,-0.9 z" fill="#f13e00" stroke="#f13e00" stroke-width="0.094"/>
  <path inkscape:connector-curvature="0" id="path118" d="m 514.90297,378.96678 c 0.5,0.5 1.1,0.9 1.7,1.4 13.9,10.4 28.1,20.3 42.2,30.4 6.5,4.5 12.6,9.5 19.5,13.4 -3.9,3.2 -8.5,5.1 -13,7.2 -16.3,7.5 -32.4,15.7 -48.9,22.7 -1.4,-7 -0.5,-14.1 -0.7,-21.2 -0.1,-15.5 0.2,-30.9 -0.2,-46.4 -0.1,-1.7 -0.7,-3.4 -1.2,-5 0.2,-0.9 0.4,-1.7 0.6,-2.5 z" fill="#ea4500" stroke="#ea4500" stroke-width="0.094"/>
  <path inkscape:connector-curvature="0" id="path120" d="m 556.10297,379.26678 c 1.8,1.7 3.1,3.9 4.1,6.2 5.9,12.9 12.3,25.6 18.1,38.7 -6.9,-3.9 -13,-8.9 -19.5,-13.4 -14.1,-10.1 -28.3,-20 -42.2,-30.4 13.1,-1.5 26.4,0.6 39.5,-1.1 z" fill="#722403" stroke="#722403" stroke-width="0.094"/>
  <path inkscape:connector-curvature="0" id="path122" d="m 190.50297,379.96678 c 2.5,0.3 5,0.5 7.5,0.9 1.5,0.7 3.8,0.9 4.3,2.9 -1.2,12.7 -1.2,25.6 -2.2,38.3 -3.4,-14 -6.3,-28.1 -9.6,-42.1 z" fill="#ab2d01" stroke="#ab2d01" stroke-width="0.094"/>
  <path inkscape:connector-curvature="0" id="path124" d="m 514.30297,381.46678 c 0.5,1.6 1.1,3.3 1.2,5 -4.3,12.8 -5.6,26.3 -8.8,39.4 -3.5,14.3 -6.7,28.6 -9.2,43.1 -0.1,0.4 -0.4,1.2 -0.5,1.6 -6.7,-1.1 -13.5,-0.7 -20.3,-0.7 -16.4,0.2 -32.9,-0.4 -49.3,0.3 0,-0.3 0,-0.9 0,-1.2 10.8,-12.6 23,-24 34.6,-35.8 12.9,-13.1 26.1,-25.9 39,-39 4.3,-4.4 9.2,-8.1 13.3,-12.7 z" fill="#c83c08" stroke="#c83c08" stroke-width="0.094"/>
  <path inkscape:connector-curvature="0" id="path126" d="m 200.10297,422.06678 c 1,-12.7 1,-25.6 2.2,-38.3 0.6,1.6 1.1,3.2 1.6,4.9 0.7,9.4 4.3,18.2 6.7,27.3 1.5,5.6 2.1,11.4 4.2,16.8 6.5,16.4 12,33.2 18.2,49.7 2.7,7.2 5.2,14.5 8.8,21.3 0.7,2.3 1.3,4.7 2,7.1 -4.2,-7 -7.6,-14.4 -11.3,-21.7 -9.8,-19.6 -19.3,-39.4 -29.2,-58.9 -1.3,-2.6 -2.6,-5.3 -3.2,-8.2 z" fill="#652005" stroke="#652005" stroke-width="0.094"/>
  <path inkscape:connector-curvature="0" id="path128" d="m 506.70297,425.86678 c 3.2,-13.1 4.5,-26.6 8.8,-39.4 0.4,15.5 0.1,30.9 0.2,46.4 0.2,7.1 -0.7,14.2 0.7,21.2 l 0.2,0.7 c -6.7,4 -12,9.8 -18.2,14.4 l -0.9,-0.2 c 2.5,-14.5 5.7,-28.8 9.2,-43.1 z" fill="#bd4003" stroke="#bd4003" stroke-width="0.094"/>
  <path inkscape:connector-curvature="0" id="path130" d="m 203.90297,388.66678 c 4.3,9 7.7,18.4 11.5,27.6 4.4,10.5 7,21.6 10.4,32.4 5.2,18.4 11.3,36.6 16,55.1 -3.6,-6.8 -6.1,-14.1 -8.8,-21.3 -6.2,-16.5 -11.7,-33.3 -18.2,-49.7 -2.1,-5.4 -2.7,-11.2 -4.2,-16.8 -2.4,-9.1 -6,-17.9 -6.7,-27.3 z" fill="#8d2905" stroke="#8d2905" stroke-width="0.094"/>
  <path inkscape:connector-curvature="0" id="path132" d="m 578.30297,424.16678 c 8.9,11.1 18.2,21.9 27.6,32.6 -5.4,4.5 -11.1,8.5 -16.6,12.8 l -0.6,0.6 c -3.6,-14.5 -5.6,-29.4 -10.2,-43.6 -3.8,5.2 -6.1,11.3 -9.3,16.9 -3,5.4 -6,10.8 -8.7,16.3 -1.5,0 -3,0 -4.4,0 -13.1,-2.4 -26.5,-2.7 -39.5,-5 l -0.2,-0.7 c 16.5,-7 32.6,-15.2 48.9,-22.7 4.5,-2.1 9.1,-4 13,-7.2 z" fill="#8a2602" stroke="#8a2602" stroke-width="0.094"/>
  <path inkscape:connector-curvature="0" id="path134" d="m 569.20297,443.46678 c 3.2,-5.6 5.5,-11.7 9.3,-16.9 4.6,14.2 6.6,29.1 10.2,43.6 -0.6,-0.2 -2,-0.5 -2.7,-0.6 -8.3,-3.9 -17,-6.7 -25.5,-9.8 2.7,-5.5 5.7,-10.9 8.7,-16.3 z" fill="#712205" stroke="#712205" stroke-width="0.094"/>
  <path inkscape:connector-curvature="0" id="path138" d="m 589.30297,469.56678 c 5.5,-4.3 11.2,-8.3 16.6,-12.8 1.5,1.1 3.1,2.1 4.7,3 3.7,4.4 8.7,7.1 13.4,10.1 -11.6,0 -23.1,0.1 -34.7,-0.3 z" fill="#d83c0a" stroke="#d83c0a" stroke-width="0.094"/>
  <path inkscape:connector-curvature="0" id="path142" d="m 560.50297,459.76678 c 8.5,3.1 17.2,5.9 25.5,9.8 -7.4,0.3 -14.8,0.4 -22.3,0.3 -1,-3.4 -2.1,-6.8 -3.2,-10.1 z" fill="#441707" stroke="#441707" stroke-width="0.094"/>
  <path inkscape:connector-curvature="0" id="path144" d="m 610.60297,459.76678 c 7.1,2.8 13.7,6.4 20.4,9.9 -2.4,0 -4.7,0.1 -7,0.2 -4.7,-3 -9.7,-5.7 -13.4,-10.1 z" fill="#972c09" stroke="#972c09" stroke-width="0.094"/>
  <path inkscape:connector-curvature="0" id="path146" d="m 380.80297,460.86678 c 13.7,2.9 27.2,6.3 41,9 1.3,0.3 2.7,0.7 4.1,1.1 0,8.4 0.6,16.8 -0.8,25.2 -1.5,-7.2 -2,-14.5 -3.6,-21.7 -0.2,-1 -0.4,-1.9 -0.6,-2.9 -6.7,5.4 -11.7,12.6 -17.9,18.6 -7.3,8 -14.5,16.2 -21.4,24.6 l -0.9,0.2 c 0,-18 -0.1,-36.1 0.1,-54.1 z" fill="#b03506" stroke="#b03506" stroke-width="0.094"/>
  <path inkscape:connector-curvature="0" id="path148" d="m 497.50297,468.96678 0.9,0.2 c 0.4,0 1.3,0.2 1.7,0.3 -4,9 -8.2,18 -13.5,26.3 2.1,-5.7 4.4,-11.3 6.1,-17.1 1.4,-2.7 3,-5.4 4.3,-8.1 0.1,-0.4 0.4,-1.2 0.5,-1.6 z" fill="#9b2e0a" stroke="#9b2e0a" stroke-width="0.094"/>
  <path inkscape:connector-curvature="0" id="path152" d="m 427.40297,470.16678 c 16.4,-0.7 32.9,-0.1 49.3,-0.3 6.8,0 13.6,-0.4 20.3,0.7 -1.3,2.7 -2.9,5.4 -4.3,8.1 -8.5,11.3 -14,24.7 -22.8,35.8 -14,-14.4 -28.3,-28.3 -42.3,-42.6 -0.1,-0.4 -0.2,-1.2 -0.2,-1.7 z" fill="#fc4103" stroke="#fc4103" stroke-width="0.094"/>
  <path inkscape:connector-curvature="0" id="path154" d="m 500.10297,469.46678 c 3.5,0.6 7,0.6 10.5,0.5 1.6,-0.1 3.2,-0.3 4.8,-0.4 l 0.2,0.8 c -7,6.6 -12.5,14.5 -18.6,21.8 -6.1,6.9 -12,14 -18.2,20.8 2.5,-5.8 5.1,-11.5 7.8,-17.2 5.3,-8.3 9.5,-17.3 13.5,-26.3 z" fill="#72270b" stroke="#72270b" stroke-width="0.094"/>
  <path inkscape:connector-curvature="0" id="path162" d="m 425.90297,470.96678 c 0.4,0.2 1.3,0.7 1.7,0.9 14,14.3 28.3,28.2 42.3,42.6 0.5,2.6 1,5.1 1.4,7.8 -0.2,0.2 -0.6,0.7 -0.8,0.9 -13.6,-2.7 -27.3,-5.1 -41,-7.9 12.8,-0.8 25.6,0.3 38.3,-0.8 -14.1,-4.4 -28.5,-8.3 -42.6,-13 0,-1.8 0,-3.6 -0.1,-5.3 1.4,-8.4 0.8,-16.8 0.8,-25.2 z" fill="#a53104" stroke="#a53104" stroke-width="0.094"/>
  <path inkscape:connector-curvature="0" id="path164" d="m 497.00297,492.16678 c 6.1,-7.3 11.6,-15.2 18.6,-21.8 6.8,28.5 13.6,56.9 20.3,85.4 0.3,1.3 0.5,2.6 0.7,3.9 -0.4,0.2 -1.3,0.7 -1.7,0.9 -1.3,-0.3 -2.6,-0.6 -3.8,-0.9 -12,-10.9 -24.8,-20.7 -37,-31.1 -5.5,-4.6 -10.9,-9.3 -16.5,-13.8 0.3,-0.5 0.9,-1.4 1.2,-1.8 6.2,-6.8 12.1,-13.9 18.2,-20.8 z" fill="#4a2e22" stroke="#4a2e22" stroke-width="0.094"/>
  <path inkscape:connector-curvature="0" id="path166" d="m 403.00297,490.16678 c 6.2,-6 11.2,-13.2 17.9,-18.6 0.2,1 0.4,1.9 0.6,2.9 -2.7,10 -4.7,20.2 -7,30.3 -0.6,3.1 -1,6.2 -1.2,9.4 0.9,0.4 1.8,0.9 2.8,1.4 -1.1,2.2 -2.1,4.5 -3.1,6.9 -3.8,3.4 -5.3,8.6 -7.8,13 -4.6,8.4 -9,16.9 -13.4,25.4 -1.8,3.4 -3.1,7.3 -6.4,9.5 9.3,-18.3 17.9,-37.1 27.2,-55.5 -10.4,0 -20.7,0 -31,-0.1 6.9,-8.4 14.1,-16.6 21.4,-24.6 z" fill="#962b04" stroke="#962b04" stroke-width="0.094"/>
  <path inkscape:connector-curvature="0" id="path168" d="m 414.50297,504.76678 c 2.3,-10.1 4.3,-20.3 7,-30.3 1.6,7.2 2.1,14.5 3.6,21.7 0.1,1.7 0.1,3.5 0.1,5.3 0,0.4 0,1 0,1.3 -3.7,4.1 -7.6,7.9 -11.9,11.4 0.2,-3.2 0.6,-6.3 1.2,-9.4 z" fill="#752903" stroke="#752903" stroke-width="0.094"/>
  <path inkscape:connector-curvature="0" id="path170" d="m 469.90297,514.46678 c 8.8,-11.1 14.3,-24.5 22.8,-35.8 -1.7,5.8 -4,11.4 -6.1,17.1 -2.7,5.7 -5.3,11.4 -7.8,17.2 -0.3,0.4 -0.9,1.3 -1.2,1.8 -1.8,2.7 -4.1,5 -6.3,7.5 -0.4,-2.7 -0.9,-5.2 -1.4,-7.8 z" fill="#cb3b0b" stroke="#cb3b0b" stroke-width="0.094"/>
  <path inkscape:connector-curvature="0" id="path172" d="m 425.20297,502.76678 c 0,-0.3 0,-0.9 0,-1.3 14.1,4.7 28.5,8.6 42.6,13 -12.7,1.1 -25.5,0 -38.3,0.8 13.7,2.8 27.4,5.2 41,7.9 11.3,11.6 21.6,24 32.6,35.9 -9.1,1.9 -18.5,-0.1 -27.7,1.5 -1.5,-0.3 -3,-0.6 -4.5,-0.9 -1.7,-1.6 -3.4,-3.2 -5.2,-4.8 -12,-12.9 -25,-25 -37.3,-37.7 -3.5,-3.9 -2.7,-9.6 -3.2,-14.4 z" fill="#632206" stroke="#632206" stroke-width="0.094"/>
  <path inkscape:connector-curvature="0" id="path176" d="m 245.60297,514.96678 c 45,-0.2 90.1,-0.1 135.1,0 -0.2,0.5 -0.6,1.4 -0.9,1.9 -14.2,12.8 -26.8,27.3 -41.3,39.8 -16.2,15.7 -31.6,32.1 -48,47.5 -5.2,-9 -9.4,-18.6 -14.2,-27.9 -10.1,-20.5 -20.8,-40.7 -30.7,-61.3 z" fill="#73230b" stroke="#73230b" stroke-width="0.094"/>
  <path inkscape:connector-curvature="0" id="path178" d="m 380.70297,514.96678 0.9,-0.2 c 10.3,0.1 20.6,0.1 31,0.1 -9.3,18.4 -17.9,37.2 -27.2,55.5 -6.1,9.1 -8.7,20 -15,29 -0.4,-8.3 1.7,-16.4 2.3,-24.6 0.3,-2 -0.7,-3.8 -1.7,-5.4 2.7,-17.6 6.5,-34.9 8.8,-52.5 0.3,-0.5 0.7,-1.4 0.9,-1.9 z" fill="#e03c03" stroke="#e03c03" stroke-width="0.094"/>
  <path inkscape:connector-curvature="0" id="path180" d="m 477.60297,514.76678 c 5.6,4.5 11,9.2 16.5,13.8 12.2,10.4 25,20.2 37,31.1 -8.9,-0.1 -17.8,-0.4 -26.7,0.6 -0.3,-0.3 -1,-0.9 -1.3,-1.2 -11,-11.9 -21.3,-24.3 -32.6,-35.9 0.2,-0.2 0.6,-0.7 0.8,-0.9 2.2,-2.5 4.5,-4.8 6.3,-7.5 z" fill="#963613" stroke="#963613" stroke-width="0.094"/>
  <path inkscape:connector-curvature="0" id="path184" d="m 338.50297,556.66678 c 14.5,-12.5 27.1,-27 41.3,-39.8 -2.3,17.6 -6.1,34.9 -8.8,52.5 -2.3,11.7 -4.3,23.6 -6.4,35.4 -24.3,0.3 -48.7,-0.2 -73,0.3 -0.3,-0.2 -0.8,-0.7 -1.1,-0.9 16.4,-15.4 31.8,-31.8 48,-47.5 z" fill="#541705" stroke="#541705" stroke-width="0.094"/>
  <path inkscape:connector-curvature="0" id="path186" d="m 405.20297,535.46678 c 2.5,-4.4 4,-9.6 7.8,-13 -10.4,31.2 -21,62.3 -31.9,93.4 -0.1,0.3 -0.2,1 -0.3,1.3 -5.2,-4.4 -10.7,-8.3 -16.2,-12.4 2.1,-11.8 4.1,-23.7 6.4,-35.4 1,1.6 2,3.4 1.7,5.4 -0.6,8.2 -2.7,16.3 -2.3,24.6 6.3,-9 8.9,-19.9 15,-29 3.3,-2.2 4.6,-6.1 6.4,-9.5 4.4,-8.5 8.8,-17 13.4,-25.4 z" fill="#db4006" stroke="#db4006" stroke-width="0.094"/>
  <path inkscape:connector-curvature="0" id="path190" d="m 503.10297,559.06678 c 0.3,0.3 1,0.9 1.3,1.2 3.4,2.9 6.6,6.2 9.4,9.7 -13,-2.3 -25.7,-5.9 -38.4,-9.4 9.2,-1.6 18.6,0.4 27.7,-1.5 z" fill="#742a0b" stroke="#742a0b" stroke-width="0.094"/>
  <path inkscape:connector-curvature="0" id="path194" d="m 504.40297,560.26678 c 8.9,-1 17.8,-0.7 26.7,-0.6 1.2,0.3 2.5,0.6 3.8,0.9 -6.7,3.6 -13.4,7.2 -20.2,10.5 -0.2,-0.3 -0.6,-0.8 -0.9,-1.1 -2.8,-3.5 -6,-6.8 -9.4,-9.7 z" fill="#c23e0d" stroke="#c23e0d" stroke-width="0.094"/>
  <path inkscape:connector-curvature="0" id="path198" d="m 364.60297,604.76678 c 5.5,4.1 11,8 16.2,12.4 -0.4,10.4 0.3,20.7 -0.5,31.1 -5,-14.6 -10.7,-28.9 -15.7,-43.5 z" fill="#782c08" stroke="#782c08" stroke-width="0.094"/>
  <path inkscape:connector-curvature="0" id="path202" d="m 380.80297,617.16678 c 0.1,-0.3 0.2,-1 0.3,-1.3 0.4,0.3 1.1,1 1.5,1.3 1.1,0.9 2.2,1.7 3.4,2.5 16.1,9.4 32.3,18.5 48.4,27.7 1.2,0.7 2.3,1.5 3.4,2.3 -14.4,0.4 -28.7,0 -43.1,0.2 -4.8,0.1 -9.6,0.3 -14.3,-0.7 l -0.1,-0.9 c 0.8,-10.4 0.1,-20.7 0.5,-31.1 z" fill="#451a05" stroke="#451a05" stroke-width="0.094"/>
 </g>
</svg>
